<svg width="18" height="17" viewBox="0 0 18 17" fill="none" xmlns="http://www.w3.org/2000/svg">
<path d="M16.0517 2.83738C15.9175 2.63805 15.7684 2.46549 15.6036 2.31445C15.1207 1.87184 14.4184 1.53458 13.3334 1.31354C12.2415 1.09111 10.8321 0.999996 9 0.999996C6.5735 0.999996 4.9078 1.16127 3.74658 1.55792C2.89663 1.84824 2.33342 2.25749 1.93842 2.85206C2.01628 2.93523 2.10332 3.02689 2.19883 3.12557C2.65758 3.59956 3.3055 4.22917 4.0644 4.85583C4.82619 5.48487 5.68013 6.09453 6.55053 6.54284C7.42849 6.99505 8.26142 7.25099 8.99866 7.25C9.73441 7.24901 10.5653 6.99189 11.4409 6.53923C12.3089 6.09047 13.1602 5.4811 13.9195 4.85269C14.6759 4.22666 15.3216 3.59799 15.7788 3.1248C15.8794 3.02057 15.9707 2.92418 16.0517 2.83738ZM1.20766 4.96616C1.06474 5.83232 1 6.90726 1 8.25C1 11.674 1.43014 13.2998 2.39641 14.1855C2.87925 14.6282 3.58164 14.9654 4.66665 15.1865C5.75851 15.4089 7.16786 15.5 9 15.5C10.8321 15.5 12.2415 15.4089 13.3334 15.1865C14.4184 14.9654 15.1207 14.6282 15.6036 14.1855C16.5699 13.2998 17 11.674 17 8.25C17 6.88627 16.9318 5.8078 16.7886 4.94771C16.3484 5.38256 15.8064 5.88721 15.1946 6.39347C14.3688 7.07692 13.3963 7.77973 12.3594 8.31583C11.33 8.84802 10.175 9.24842 9.00134 9.25C7.82512 9.25157 6.66702 8.85255 5.63474 8.32085C4.59491 7.78527 3.61941 7.08211 2.79095 6.39801C2.18463 5.89734 1.64649 5.39807 1.20766 4.96616Z" stroke="#BDBDBD" stroke-width="2" stroke-linecap="round" stroke-linejoin="round"/>
</svg>
