<svg width="18" height="19" viewBox="0 0 18 19" fill="none" xmlns="http://www.w3.org/2000/svg">
<path fill-rule="evenodd" clip-rule="evenodd" d="M5.54063 5.63417C6.52173 5.53856 7.66663 5.5 9 5.5C10.3334 5.5 11.4783 5.53856 12.4594 5.63417C12.3355 4.73109 11.9397 4.07605 11.4294 3.62241C10.7912 3.0551 9.91193 2.75 9 2.75C8.08807 2.75 7.20883 3.0551 6.57061 3.62241C6.06027 4.07605 5.66451 4.73109 5.54063 5.63417ZM14.4946 5.97795C14.4292 4.33473 13.7705 3.02752 12.7581 2.12759C11.7088 1.1949 10.3381 0.75 9 0.75C7.66193 0.75 6.29117 1.1949 5.24189 2.12759C4.22946 3.02752 3.57084 4.33473 3.50538 5.97795C0.729332 6.72217 0 8.48351 0 12.25C0 17.8086 1.5885 19 9 19C16.4115 19 18 17.8086 18 12.25C18 8.48351 17.2707 6.72217 14.4946 5.97795ZM2 12.25C2 15.0122 2.44401 15.752 2.92069 16.1095C3.22497 16.3377 3.76653 16.5826 4.79585 16.7542C5.82243 16.9253 7.1805 17 9 17C10.8195 17 12.1776 16.9253 13.2042 16.7542C14.2335 16.5826 14.775 16.3377 15.0793 16.1095C15.556 15.752 16 15.0122 16 12.25C16 9.48778 15.556 8.74802 15.0793 8.39052C14.775 8.1623 14.2335 7.91736 13.2042 7.74579C12.1776 7.57468 10.8195 7.5 9 7.5C7.1805 7.5 5.82243 7.57468 4.79585 7.74579C3.76653 7.91736 3.22497 8.1623 2.92069 8.39052C2.44401 8.74802 2 9.48778 2 12.25Z" fill="#BDBDBD"/>
<circle cx="2.25" cy="2.25" r="1.25" transform="matrix(-1 0 0 1 11.25 10)" stroke="#BDBDBD" stroke-width="2"/>
</svg>
