<svg width="60" height="60" viewBox="0 0 60 60" fill="none" xmlns="http://www.w3.org/2000/svg">
<path d="M29.3176 59.2902C13.2529 59.3537 0.178449 46.3822 0.114963 30.3175C0.0514772 14.2529 13.023 1.17844 29.0877 1.11495C45.1523 1.05147 58.2268 14.023 58.2902 30.0876C58.3537 46.1523 45.3822 59.2267 29.3176 59.2902ZM29.1093 6.60316C16.0757 6.65467 5.55167 17.2622 5.60317 30.2959C5.65468 43.3295 16.2623 53.8535 29.2959 53.802C42.3295 53.7505 52.8535 43.1429 52.802 30.1093C52.7505 17.0757 42.1429 6.55166 29.1093 6.60316Z" fill="#00FFC6" fill-opacity="0.12"/>
<path d="M37.1345 4.56091C37.5514 3.10383 36.7091 1.57101 35.2192 1.29324C29.2301 0.176634 23.0154 0.965475 17.465 3.58722C11.0842 6.60122 6.01668 11.8321 3.20653 18.3052C0.39637 24.7784 0.0352332 32.0524 2.1904 38.772C4.34556 45.4917 8.87005 51.1988 14.9209 54.83C20.9718 58.4612 28.1364 59.7688 35.0799 58.5094C42.0234 57.25 48.2723 53.5093 52.6624 47.9843C57.0525 42.4592 59.2844 35.5267 58.9422 28.4782C58.6446 22.347 56.417 16.4918 52.6141 11.7321C51.6681 10.5481 49.9193 10.5259 48.8296 11.5793V11.5793C47.7399 12.6326 47.7252 14.3613 48.645 15.5659C51.536 19.3517 53.2274 23.9437 53.4604 28.7443C53.738 34.4629 51.9272 40.0874 48.3655 44.57C44.8037 49.0526 39.7338 52.0875 34.1004 53.1093C28.467 54.1311 22.6542 53.0701 17.745 50.124C12.8358 47.178 9.16497 42.5477 7.41644 37.0959C5.66791 31.6441 5.96091 25.7425 8.24085 20.4907C10.5208 15.2389 14.6322 10.995 19.8091 8.54971C24.1548 6.49696 29.0027 5.82917 33.7035 6.59925C35.1991 6.84426 36.7177 6.01799 37.1345 4.56091V4.56091Z" fill="#00FFC6"/>
<path d="M18.748 31.432C18.868 32.064 19.236 32.38 19.852 32.38C20.276 32.38 20.576 32.192 20.752 31.816C20.928 31.44 21.016 30.828 21.016 29.98C20.84 30.228 20.6 30.42 20.296 30.556C19.992 30.692 19.652 30.76 19.276 30.76C18.764 30.76 18.308 30.656 17.908 30.448C17.508 30.232 17.192 29.916 16.96 29.5C16.736 29.076 16.624 28.564 16.624 27.964C16.624 27.372 16.744 26.856 16.984 26.416C17.232 25.976 17.58 25.636 18.028 25.396C18.484 25.156 19.02 25.036 19.636 25.036C20.82 25.036 21.648 25.404 22.12 26.14C22.592 26.876 22.828 27.96 22.828 29.392C22.828 30.432 22.732 31.292 22.54 31.972C22.356 32.644 22.04 33.156 21.592 33.508C21.152 33.86 20.548 34.036 19.78 34.036C19.172 34.036 18.652 33.916 18.22 33.676C17.796 33.436 17.468 33.12 17.236 32.728C17.012 32.336 16.884 31.904 16.852 31.432H18.748ZM19.744 29.14C20.08 29.14 20.348 29.04 20.548 28.84C20.748 28.632 20.848 28.352 20.848 28C20.848 27.616 20.744 27.32 20.536 27.112C20.328 26.904 20.048 26.8 19.696 26.8C19.344 26.8 19.064 26.908 18.856 27.124C18.656 27.332 18.556 27.62 18.556 27.988C18.556 28.332 18.656 28.612 18.856 28.828C19.064 29.036 19.36 29.14 19.744 29.14ZM24.5228 29.5C24.5228 28.124 24.7868 27.04 25.3148 26.248C25.8508 25.456 26.7108 25.06 27.8948 25.06C29.0788 25.06 29.9348 25.456 30.4628 26.248C30.9988 27.04 31.2668 28.124 31.2668 29.5C31.2668 30.892 30.9988 31.984 30.4628 32.776C29.9348 33.568 29.0788 33.964 27.8948 33.964C26.7108 33.964 25.8508 33.568 25.3148 32.776C24.7868 31.984 24.5228 30.892 24.5228 29.5ZM29.2508 29.5C29.2508 28.692 29.1628 28.072 28.9868 27.64C28.8108 27.2 28.4468 26.98 27.8948 26.98C27.3428 26.98 26.9788 27.2 26.8028 27.64C26.6268 28.072 26.5388 28.692 26.5388 29.5C26.5388 30.044 26.5708 30.496 26.6348 30.856C26.6988 31.208 26.8268 31.496 27.0188 31.72C27.2188 31.936 27.5108 32.044 27.8948 32.044C28.2788 32.044 28.5668 31.936 28.7588 31.72C28.9588 31.496 29.0908 31.208 29.1548 30.856C29.2188 30.496 29.2508 30.044 29.2508 29.5ZM32.7829 27.448C32.7829 26.8 32.9669 26.3 33.3349 25.948C33.7109 25.596 34.1949 25.42 34.7869 25.42C35.3789 25.42 35.8589 25.596 36.2269 25.948C36.5949 26.3 36.7789 26.8 36.7789 27.448C36.7789 28.096 36.5949 28.596 36.2269 28.948C35.8589 29.3 35.3789 29.476 34.7869 29.476C34.1949 29.476 33.7109 29.3 33.3349 28.948C32.9669 28.596 32.7829 28.096 32.7829 27.448ZM40.9309 25.552L36.3109 34H34.3309L38.9509 25.552H40.9309ZM34.7749 26.62C34.3909 26.62 34.1989 26.896 34.1989 27.448C34.1989 27.992 34.3909 28.264 34.7749 28.264C34.9589 28.264 35.1029 28.196 35.2069 28.06C35.3109 27.924 35.3629 27.72 35.3629 27.448C35.3629 26.896 35.1669 26.62 34.7749 26.62ZM38.4949 32.104C38.4949 31.456 38.6789 30.956 39.0469 30.604C39.4149 30.252 39.8949 30.076 40.4869 30.076C41.0789 30.076 41.5589 30.252 41.9269 30.604C42.2949 30.956 42.4789 31.456 42.4789 32.104C42.4789 32.752 42.2949 33.252 41.9269 33.604C41.5589 33.956 41.0789 34.132 40.4869 34.132C39.8949 34.132 39.4149 33.956 39.0469 33.604C38.6789 33.252 38.4949 32.752 38.4949 32.104ZM40.4749 31.276C40.2909 31.276 40.1469 31.344 40.0429 31.48C39.9469 31.616 39.8989 31.824 39.8989 32.104C39.8989 32.648 40.0909 32.92 40.4749 32.92C40.6589 32.92 40.8029 32.852 40.9069 32.716C41.0109 32.58 41.0629 32.376 41.0629 32.104C41.0629 31.832 41.0109 31.628 40.9069 31.492C40.8029 31.348 40.6589 31.276 40.4749 31.276Z" fill="#010630"/>
</svg>
