<svg width="188" height="19" viewBox="0 0 188 19" fill="none" xmlns="http://www.w3.org/2000/svg">
<rect y="2" width="188" height="2" rx="1" fill="#00FFC6" fill-opacity="0.12"/>
<rect y="2" width="107" height="2" rx="1" fill="#00FFC6"/>
<circle cx="105" cy="3" r="3" fill="#00FFC6"/>
<g clip-path="url(#clip0_231_399)">
<path d="M9.16659 12.6168V13.0001C9.16607 13.8986 8.87513 14.7729 8.33714 15.4925C7.79916 16.2122 7.04295 16.7386 6.18132 16.9934C5.31968 17.2482 4.39878 17.2176 3.55595 16.9062C2.71312 16.5948 1.99352 16.0193 1.50449 15.2656C1.01545 14.5118 0.783165 13.6201 0.842284 12.7236C0.901403 11.827 1.24875 10.9736 1.83254 10.2906C2.41632 9.60753 3.20525 9.13152 4.08166 8.9335C4.95808 8.73549 5.87503 8.82608 6.69575 9.19177" stroke="#00FFC6" stroke-linecap="round" stroke-linejoin="round"/>
<path d="M9.16667 9.66675L5 13.8376L3.75 12.5876" stroke="#00FFC6" stroke-linecap="round" stroke-linejoin="round"/>
</g>
<path d="M18.24 10.952H15.56V12.544C15.672 12.3947 15.8373 12.2693 16.056 12.168C16.28 12.0667 16.5173 12.016 16.768 12.016C17.216 12.016 17.5787 12.112 17.856 12.304C18.1387 12.496 18.3387 12.7387 18.456 13.032C18.5787 13.3253 18.64 13.6347 18.64 13.96C18.64 14.3547 18.5627 14.7067 18.408 15.016C18.2587 15.32 18.032 15.56 17.728 15.736C17.4293 15.912 17.0613 16 16.624 16C16.0427 16 15.576 15.856 15.224 15.568C14.872 15.28 14.6613 14.8987 14.592 14.424H15.48C15.5387 14.6747 15.6693 14.8747 15.872 15.024C16.0747 15.168 16.328 15.24 16.632 15.24C17.0107 15.24 17.2933 15.1253 17.48 14.896C17.672 14.6667 17.768 14.3627 17.768 13.984C17.768 13.6 17.672 13.3067 17.48 13.104C17.288 12.896 17.0053 12.792 16.632 12.792C16.3707 12.792 16.1493 12.8587 15.968 12.992C15.792 13.12 15.664 13.296 15.584 13.52H14.72V10.152H18.24V10.952ZM19.8294 13.008C19.8294 12.0853 19.984 11.3653 20.2934 10.848C20.608 10.3253 21.1467 10.064 21.9094 10.064C22.672 10.064 23.208 10.3253 23.5174 10.848C23.832 11.3653 23.9894 12.0853 23.9894 13.008C23.9894 13.9413 23.832 14.672 23.5174 15.2C23.208 15.7227 22.672 15.984 21.9094 15.984C21.1467 15.984 20.608 15.7227 20.2934 15.2C19.984 14.672 19.8294 13.9413 19.8294 13.008ZM23.0934 13.008C23.0934 12.576 23.064 12.2107 23.0054 11.912C22.952 11.6133 22.84 11.3707 22.6694 11.184C22.4987 10.992 22.2454 10.896 21.9094 10.896C21.5734 10.896 21.32 10.992 21.1494 11.184C20.9787 11.3707 20.864 11.6133 20.8054 11.912C20.752 12.2107 20.7254 12.576 20.7254 13.008C20.7254 13.456 20.752 13.832 20.8054 14.136C20.8587 14.44 20.9707 14.6853 21.1414 14.872C21.3174 15.0587 21.5734 15.152 21.9094 15.152C22.2454 15.152 22.4987 15.0587 22.6694 14.872C22.8454 14.6853 22.96 14.44 23.0134 14.136C23.0667 13.832 23.0934 13.456 23.0934 13.008ZM25.0504 11.576C25.0504 11.1867 25.1624 10.8827 25.3864 10.664C25.6157 10.44 25.909 10.328 26.2664 10.328C26.6237 10.328 26.9144 10.44 27.1384 10.664C27.3677 10.8827 27.4824 11.1867 27.4824 11.576C27.4824 11.9653 27.3677 12.272 27.1384 12.496C26.9144 12.72 26.6237 12.832 26.2664 12.832C25.909 12.832 25.6157 12.72 25.3864 12.496C25.1624 12.272 25.0504 11.9653 25.0504 11.576ZM29.9304 10.432L26.7384 16H25.8424L29.0344 10.432H29.9304ZM26.2664 10.88C25.9304 10.88 25.7624 11.112 25.7624 11.576C25.7624 12.0453 25.9304 12.28 26.2664 12.28C26.4264 12.28 26.549 12.224 26.6344 12.112C26.725 11.9947 26.7704 11.816 26.7704 11.576C26.7704 11.112 26.6024 10.88 26.2664 10.88ZM28.3064 14.848C28.3064 14.4587 28.4184 14.1547 28.6424 13.936C28.8717 13.712 29.165 13.6 29.5224 13.6C29.8744 13.6 30.1624 13.712 30.3864 13.936C30.6157 14.1547 30.7304 14.4587 30.7304 14.848C30.7304 15.2373 30.6157 15.544 30.3864 15.768C30.1624 15.992 29.8744 16.104 29.5224 16.104C29.165 16.104 28.8717 15.992 28.6424 15.768C28.4184 15.544 28.3064 15.2373 28.3064 14.848ZM29.5144 14.152C29.1784 14.152 29.0104 14.384 29.0104 14.848C29.0104 15.312 29.1784 15.544 29.5144 15.544C29.8504 15.544 30.0184 15.312 30.0184 14.848C30.0184 14.384 29.8504 14.152 29.5144 14.152ZM33.9201 13.208C33.9201 12.664 34.0454 12.176 34.2961 11.744C34.5521 11.312 34.8961 10.976 35.3281 10.736C35.7654 10.4907 36.2427 10.368 36.7601 10.368C37.3521 10.368 37.8774 10.5147 38.3361 10.808C38.8001 11.096 39.1361 11.5067 39.3441 12.04H38.2481C38.1041 11.7467 37.9041 11.528 37.6481 11.384C37.3921 11.24 37.0961 11.168 36.7601 11.168C36.3921 11.168 36.0641 11.2507 35.7761 11.416C35.4881 11.5813 35.2614 11.8187 35.0961 12.128C34.9361 12.4373 34.8561 12.7973 34.8561 13.208C34.8561 13.6187 34.9361 13.9787 35.0961 14.288C35.2614 14.5973 35.4881 14.8373 35.7761 15.008C36.0641 15.1733 36.3921 15.256 36.7601 15.256C37.0961 15.256 37.3921 15.184 37.6481 15.04C37.9041 14.896 38.1041 14.6773 38.2481 14.384H39.3441C39.1361 14.9173 38.8001 15.328 38.3361 15.616C37.8774 15.904 37.3521 16.048 36.7601 16.048C36.2374 16.048 35.7601 15.928 35.3281 15.688C34.8961 15.4427 34.5521 15.104 34.2961 14.672C34.0454 14.24 33.9201 13.752 33.9201 13.208ZM42.5636 16.072C42.1476 16.072 41.7716 15.9787 41.4356 15.792C41.0996 15.6 40.8356 15.3333 40.6436 14.992C40.4516 14.6453 40.3556 14.2453 40.3556 13.792C40.3556 13.344 40.4542 12.9467 40.6516 12.6C40.8489 12.2533 41.1182 11.9867 41.4596 11.8C41.8009 11.6133 42.1822 11.52 42.6036 11.52C43.0249 11.52 43.4062 11.6133 43.7476 11.8C44.0889 11.9867 44.3582 12.2533 44.5556 12.6C44.7529 12.9467 44.8516 13.344 44.8516 13.792C44.8516 14.24 44.7502 14.6373 44.5476 14.984C44.3449 15.3307 44.0676 15.6 43.7156 15.792C43.3689 15.9787 42.9849 16.072 42.5636 16.072ZM42.5636 15.28C42.7982 15.28 43.0169 15.224 43.2196 15.112C43.4276 15 43.5956 14.832 43.7236 14.608C43.8516 14.384 43.9156 14.112 43.9156 13.792C43.9156 13.472 43.8542 13.2027 43.7316 12.984C43.6089 12.76 43.4462 12.592 43.2436 12.48C43.0409 12.368 42.8222 12.312 42.5876 12.312C42.3529 12.312 42.1342 12.368 41.9316 12.48C41.7342 12.592 41.5769 12.76 41.4596 12.984C41.3422 13.2027 41.2836 13.472 41.2836 13.792C41.2836 14.2667 41.4036 14.6347 41.6436 14.896C41.8889 15.152 42.1956 15.28 42.5636 15.28ZM51.3291 11.52C51.6758 11.52 51.9851 11.592 52.2571 11.736C52.5345 11.88 52.7505 12.0933 52.9051 12.376C53.0651 12.6587 53.1451 13 53.1451 13.4V16H52.2411V13.536C52.2411 13.1413 52.1425 12.84 51.9451 12.632C51.7478 12.4187 51.4785 12.312 51.1371 12.312C50.7958 12.312 50.5238 12.4187 50.3211 12.632C50.1238 12.84 50.0251 13.1413 50.0251 13.536V16H49.1211V13.536C49.1211 13.1413 49.0225 12.84 48.8251 12.632C48.6278 12.4187 48.3585 12.312 48.0171 12.312C47.6758 12.312 47.4038 12.4187 47.2011 12.632C47.0038 12.84 46.9051 13.1413 46.9051 13.536V16H45.9931V11.592H46.9051V12.096C47.0545 11.9147 47.2438 11.7733 47.4731 11.672C47.7025 11.5707 47.9478 11.52 48.2091 11.52C48.5611 11.52 48.8758 11.5947 49.1531 11.744C49.4305 11.8933 49.6438 12.1093 49.7931 12.392C49.9265 12.1253 50.1345 11.9147 50.4171 11.76C50.6998 11.6 51.0038 11.52 51.3291 11.52ZM55.4576 12.24C55.6123 12.0373 55.823 11.8667 56.0896 11.728C56.3563 11.5893 56.6576 11.52 56.9936 11.52C57.3776 11.52 57.727 11.616 58.0416 11.808C58.3616 11.9947 58.6123 12.2587 58.7936 12.6C58.975 12.9413 59.0656 13.3333 59.0656 13.776C59.0656 14.2187 58.975 14.616 58.7936 14.968C58.6123 15.3147 58.3616 15.5867 58.0416 15.784C57.727 15.976 57.3776 16.072 56.9936 16.072C56.6576 16.072 56.359 16.0053 56.0976 15.872C55.8363 15.7333 55.623 15.5627 55.4576 15.36V18.096H54.5456V11.592H55.4576V12.24ZM58.1376 13.776C58.1376 13.472 58.0736 13.2107 57.9456 12.992C57.823 12.768 57.6576 12.6 57.4496 12.488C57.247 12.3707 57.0283 12.312 56.7936 12.312C56.5643 12.312 56.3456 12.3707 56.1376 12.488C55.935 12.6053 55.7696 12.776 55.6416 13C55.519 13.224 55.4576 13.488 55.4576 13.792C55.4576 14.096 55.519 14.3627 55.6416 14.592C55.7696 14.816 55.935 14.9867 56.1376 15.104C56.3456 15.2213 56.5643 15.28 56.7936 15.28C57.0283 15.28 57.247 15.2213 57.4496 15.104C57.6576 14.9813 57.823 14.8053 57.9456 14.576C58.0736 14.3467 58.1376 14.08 58.1376 13.776ZM61.1195 10.08V16H60.2075V10.08H61.1195ZM66.5969 13.688C66.5969 13.8533 66.5862 14.0027 66.5649 14.136H63.1969C63.2235 14.488 63.3542 14.7707 63.5889 14.984C63.8235 15.1973 64.1115 15.304 64.4529 15.304C64.9435 15.304 65.2902 15.0987 65.4929 14.688H66.4769C66.3435 15.0933 66.1009 15.4267 65.7489 15.688C65.4022 15.944 64.9702 16.072 64.4529 16.072C64.0315 16.072 63.6529 15.9787 63.3169 15.792C62.9862 15.6 62.7249 15.3333 62.5329 14.992C62.3462 14.6453 62.2529 14.2453 62.2529 13.792C62.2529 13.3387 62.3435 12.9413 62.5249 12.6C62.7115 12.2533 62.9702 11.9867 63.3009 11.8C63.6369 11.6133 64.0209 11.52 64.4529 11.52C64.8689 11.52 65.2395 11.6107 65.5649 11.792C65.8902 11.9733 66.1435 12.2293 66.3249 12.56C66.5062 12.8853 66.5969 13.2613 66.5969 13.688ZM65.6449 13.4C65.6395 13.064 65.5195 12.7947 65.2849 12.592C65.0502 12.3893 64.7595 12.288 64.4129 12.288C64.0982 12.288 63.8289 12.3893 63.6049 12.592C63.3809 12.7893 63.2475 13.0587 63.2049 13.4H65.6449ZM68.7984 12.336V14.776C68.7984 14.9413 68.8357 15.0613 68.9104 15.136C68.9904 15.2053 69.1237 15.24 69.3104 15.24H69.8704V16H69.1504C68.7397 16 68.425 15.904 68.2064 15.712C67.9877 15.52 67.8784 15.208 67.8784 14.776V12.336H67.3584V11.592H67.8784V10.496H68.7984V11.592H69.8704V12.336H68.7984ZM74.9909 13.688C74.9909 13.8533 74.9803 14.0027 74.9589 14.136H71.5909C71.6176 14.488 71.7483 14.7707 71.9829 14.984C72.2176 15.1973 72.5056 15.304 72.8469 15.304C73.3376 15.304 73.6843 15.0987 73.8869 14.688H74.8709C74.7376 15.0933 74.4949 15.4267 74.1429 15.688C73.7963 15.944 73.3643 16.072 72.8469 16.072C72.4256 16.072 72.0469 15.9787 71.7109 15.792C71.3803 15.6 71.1189 15.3333 70.9269 14.992C70.7403 14.6453 70.6469 14.2453 70.6469 13.792C70.6469 13.3387 70.7376 12.9413 70.9189 12.6C71.1056 12.2533 71.3643 11.9867 71.6949 11.8C72.0309 11.6133 72.4149 11.52 72.8469 11.52C73.2629 11.52 73.6336 11.6107 73.9589 11.792C74.2843 11.9733 74.5376 12.2293 74.7189 12.56C74.9003 12.8853 74.9909 13.2613 74.9909 13.688ZM74.0389 13.4C74.0336 13.064 73.9136 12.7947 73.6789 12.592C73.4443 12.3893 73.1536 12.288 72.8069 12.288C72.4923 12.288 72.2229 12.3893 71.9989 12.592C71.7749 12.7893 71.6416 13.0587 71.5989 13.4H74.0389ZM75.8244 13.776C75.8244 13.3333 75.9151 12.9413 76.0964 12.6C76.2831 12.2587 76.5338 11.9947 76.8484 11.808C77.1684 11.616 77.5231 11.52 77.9124 11.52C78.2004 11.52 78.4831 11.584 78.7604 11.712C79.0431 11.8347 79.2671 12 79.4324 12.208V10.08H80.3524V16H79.4324V15.336C79.2831 15.5493 79.0751 15.7253 78.8084 15.864C78.5471 16.0027 78.2458 16.072 77.9044 16.072C77.5204 16.072 77.1684 15.976 76.8484 15.784C76.5338 15.5867 76.2831 15.3147 76.0964 14.968C75.9151 14.616 75.8244 14.2187 75.8244 13.776ZM79.4324 13.792C79.4324 13.488 79.3684 13.224 79.2404 13C79.1178 12.776 78.9551 12.6053 78.7524 12.488C78.5498 12.3707 78.3311 12.312 78.0964 12.312C77.8618 12.312 77.6431 12.3707 77.4404 12.488C77.2378 12.6 77.0724 12.768 76.9444 12.992C76.8218 13.2107 76.7604 13.472 76.7604 13.776C76.7604 14.08 76.8218 14.3467 76.9444 14.576C77.0724 14.8053 77.2378 14.9813 77.4404 15.104C77.6484 15.2213 77.8671 15.28 78.0964 15.28C78.3311 15.28 78.5498 15.2213 78.7524 15.104C78.9551 14.9867 79.1178 14.816 79.2404 14.592C79.3684 14.3627 79.4324 14.096 79.4324 13.792Z" fill="#00FFC6"/>
<defs>
<clipPath id="clip0_231_399">
<rect width="10" height="10" fill="white" transform="translate(0 8)"/>
</clipPath>
</defs>
</svg>
